# xmcd
#
# Track frame offsets:
#	150
#	23603
#	48951
#	72767
#	92032
#	118052
#	143931
#	162094
#	183593
#	220179
#
# Disc length: 3304 seconds
#
# Revision: 1
# Processed by: cddbd v1.5.1PL0 Copyright (c) Steve Scherf et al.
# Submitted via: audiograbber 1.83.01
#
DISCID=860ce60a
DTITLE=Roadhouse - No Place To Hide
DYEAR=2003
DGENRE=Bluesrock
TTITLE0=No Place To Hide
TTITLE1=Slip Away
TTITLE2=Lost Along The Way
TTITLE3=Brooklyn Blues
TTITLE4=Blue Bayou
TTITLE5=Long Way Home
TTITLE6=Don't Point That Thing At Me
TTITLE7=Lost In Pain
TTITLE8=Couldn't Get To Sleep
TTITLE9=Killing Time
EXTD=Blues Matters Music Publishing Ltd. 2004 BMRCD20245\nMade In United Kingdo
EXTD=m
EXTT0=
EXTT1=
EXTT2=
EXTT3=
EXTT4=
EXTT5=
EXTT6=
EXTT7=
EXTT8=
EXTT9=
PLAYORDER=
